<?xml version="1.0" encoding="utf-8" standalone="no"?>
<!DOCTYPE svg PUBLIC "-//W3C//DTD SVG 1.1//EN"
  "http://www.w3.org/Graphics/SVG/1.1/DTD/svg11.dtd">
<svg xmlns:xlink="http://www.w3.org/1999/xlink" width="360pt" height="360pt" viewBox="0 0 360 360" xmlns="http://www.w3.org/2000/svg" version="1.1">
 <metadata>
  <rdf:RDF xmlns:dc="http://purl.org/dc/elements/1.1/" xmlns:cc="http://creativecommons.org/ns#" xmlns:rdf="http://www.w3.org/1999/02/22-rdf-syntax-ns#">
   <cc:Work>
    <dc:type rdf:resource="http://purl.org/dc/dcmitype/StillImage"/>
    <dc:date>2023-05-03T01:41:58.058263</dc:date>
    <dc:format>image/svg+xml</dc:format>
    <dc:creator>
     <cc:Agent>
      <dc:title>Matplotlib v3.7.1, https://matplotlib.org/</dc:title>
     </cc:Agent>
    </dc:creator>
   </cc:Work>
  </rdf:RDF>
 </metadata>
 <defs>
  <style type="text/css">*{stroke-linejoin: round; stroke-linecap: butt}</style>
 </defs>
 <g id="figure_1">
  <g id="patch_1">
   <path d="M 0 360 
L 360 360 
L 360 0 
L 0 0 
z
" style="fill: #ffffff"/>
  </g>
  <g id="axes_1">
   <g id="patch_2">
    <path d="M 54 324 
L 349.2 324 
L 349.2 25.2 
L 54 25.2 
z
" style="fill: #ffffff"/>
   </g>
   <g id="matplotlib.axis_1">
    <g id="xtick_1">
     <g id="line2d_1">
      <path d="M 67.418182 324 
L 67.418182 25.2 
" clip-path="url(#p5f79500ee3)" style="fill: none; stroke: #b0b0b0; stroke-width: 0.8; stroke-linecap: square"/>
     </g>
     <g id="line2d_2">
      <defs>
       <path id="m8e780f8b3e" d="M 0 0 
L 0 3.5 
" style="stroke: #000000; stroke-width: 0.8"/>
      </defs>
      <g>
       <use xlink:href="#m8e780f8b3e" x="67.418182" y="324" style="stroke: #000000; stroke-width: 0.8"/>
      </g>
     </g>
     <g id="text_1">
      <!-- 0 -->
      <g transform="translate(64.236932 338.598437) scale(0.1 -0.1)">
       <defs>
        <path id="DejaVuSans-30" d="M 2034 4250 
Q 1547 4250 1301 3770 
Q 1056 3291 1056 2328 
Q 1056 1369 1301 889 
Q 1547 409 2034 409 
Q 2525 409 2770 889 
Q 3016 1369 3016 2328 
Q 3016 3291 2770 3770 
Q 2525 4250 2034 4250 
z
M 2034 4750 
Q 2819 4750 3233 4129 
Q 3647 3509 3647 2328 
Q 3647 1150 3233 529 
Q 2819 -91 2034 -91 
Q 1250 -91 836 529 
Q 422 1150 422 2328 
Q 422 3509 836 4129 
Q 1250 4750 2034 4750 
z
" transform="scale(0.015625)"/>
       </defs>
       <use xlink:href="#DejaVuSans-30"/>
      </g>
     </g>
    </g>
    <g id="xtick_2">
     <g id="line2d_3">
      <path d="M 108.304835 324 
L 108.304835 25.2 
" clip-path="url(#p5f79500ee3)" style="fill: none; stroke: #b0b0b0; stroke-width: 0.8; stroke-linecap: square"/>
     </g>
     <g id="line2d_4">
      <g>
       <use xlink:href="#m8e780f8b3e" x="108.304835" y="324" style="stroke: #000000; stroke-width: 0.8"/>
      </g>
     </g>
     <g id="text_2">
      <!-- 5000 -->
      <g transform="translate(95.579835 338.598437) scale(0.1 -0.1)">
       <defs>
        <path id="DejaVuSans-35" d="M 691 4666 
L 3169 4666 
L 3169 4134 
L 1269 4134 
L 1269 2991 
Q 1406 3038 1543 3061 
Q 1681 3084 1819 3084 
Q 2600 3084 3056 2656 
Q 3513 2228 3513 1497 
Q 3513 744 3044 326 
Q 2575 -91 1722 -91 
Q 1428 -91 1123 -41 
Q 819 9 494 109 
L 494 744 
Q 775 591 1075 516 
Q 1375 441 1709 441 
Q 2250 441 2565 725 
Q 2881 1009 2881 1497 
Q 2881 1984 2565 2268 
Q 2250 2553 1709 2553 
Q 1456 2553 1204 2497 
Q 953 2441 691 2322 
L 691 4666 
z
" transform="scale(0.015625)"/>
       </defs>
       <use xlink:href="#DejaVuSans-35"/>
       <use xlink:href="#DejaVuSans-30" x="63.623047"/>
       <use xlink:href="#DejaVuSans-30" x="127.246094"/>
       <use xlink:href="#DejaVuSans-30" x="190.869141"/>
      </g>
     </g>
    </g>
    <g id="xtick_3">
     <g id="line2d_5">
      <path d="M 149.191488 324 
L 149.191488 25.2 
" clip-path="url(#p5f79500ee3)" style="fill: none; stroke: #b0b0b0; stroke-width: 0.8; stroke-linecap: square"/>
     </g>
     <g id="line2d_6">
      <g>
       <use xlink:href="#m8e780f8b3e" x="149.191488" y="324" style="stroke: #000000; stroke-width: 0.8"/>
      </g>
     </g>
     <g id="text_3">
      <!-- 10000 -->
      <g transform="translate(133.285238 338.598437) scale(0.1 -0.1)">
       <defs>
        <path id="DejaVuSans-31" d="M 794 531 
L 1825 531 
L 1825 4091 
L 703 3866 
L 703 4441 
L 1819 4666 
L 2450 4666 
L 2450 531 
L 3481 531 
L 3481 0 
L 794 0 
L 794 531 
z
" transform="scale(0.015625)"/>
       </defs>
       <use xlink:href="#DejaVuSans-31"/>
       <use xlink:href="#DejaVuSans-30" x="63.623047"/>
       <use xlink:href="#DejaVuSans-30" x="127.246094"/>
       <use xlink:href="#DejaVuSans-30" x="190.869141"/>
       <use xlink:href="#DejaVuSans-30" x="254.492188"/>
      </g>
     </g>
    </g>
    <g id="xtick_4">
     <g id="line2d_7">
      <path d="M 190.078141 324 
L 190.078141 25.2 
" clip-path="url(#p5f79500ee3)" style="fill: none; stroke: #b0b0b0; stroke-width: 0.8; stroke-linecap: square"/>
     </g>
     <g id="line2d_8">
      <g>
       <use xlink:href="#m8e780f8b3e" x="190.078141" y="324" style="stroke: #000000; stroke-width: 0.8"/>
      </g>
     </g>
     <g id="text_4">
      <!-- 15000 -->
      <g transform="translate(174.171891 338.598437) scale(0.1 -0.1)">
       <use xlink:href="#DejaVuSans-31"/>
       <use xlink:href="#DejaVuSans-35" x="63.623047"/>
       <use xlink:href="#DejaVuSans-30" x="127.246094"/>
       <use xlink:href="#DejaVuSans-30" x="190.869141"/>
       <use xlink:href="#DejaVuSans-30" x="254.492188"/>
      </g>
     </g>
    </g>
    <g id="xtick_5">
     <g id="line2d_9">
      <path d="M 230.964794 324 
L 230.964794 25.2 
" clip-path="url(#p5f79500ee3)" style="fill: none; stroke: #b0b0b0; stroke-width: 0.8; stroke-linecap: square"/>
     </g>
     <g id="line2d_10">
      <g>
       <use xlink:href="#m8e780f8b3e" x="230.964794" y="324" style="stroke: #000000; stroke-width: 0.8"/>
      </g>
     </g>
     <g id="text_5">
      <!-- 20000 -->
      <g transform="translate(215.058544 338.598437) scale(0.1 -0.1)">
       <defs>
        <path id="DejaVuSans-32" d="M 1228 531 
L 3431 531 
L 3431 0 
L 469 0 
L 469 531 
Q 828 903 1448 1529 
Q 2069 2156 2228 2338 
Q 2531 2678 2651 2914 
Q 2772 3150 2772 3378 
Q 2772 3750 2511 3984 
Q 2250 4219 1831 4219 
Q 1534 4219 1204 4116 
Q 875 4013 500 3803 
L 500 4441 
Q 881 4594 1212 4672 
Q 1544 4750 1819 4750 
Q 2544 4750 2975 4387 
Q 3406 4025 3406 3419 
Q 3406 3131 3298 2873 
Q 3191 2616 2906 2266 
Q 2828 2175 2409 1742 
Q 1991 1309 1228 531 
z
" transform="scale(0.015625)"/>
       </defs>
       <use xlink:href="#DejaVuSans-32"/>
       <use xlink:href="#DejaVuSans-30" x="63.623047"/>
       <use xlink:href="#DejaVuSans-30" x="127.246094"/>
       <use xlink:href="#DejaVuSans-30" x="190.869141"/>
       <use xlink:href="#DejaVuSans-30" x="254.492188"/>
      </g>
     </g>
    </g>
    <g id="xtick_6">
     <g id="line2d_11">
      <path d="M 271.851447 324 
L 271.851447 25.2 
" clip-path="url(#p5f79500ee3)" style="fill: none; stroke: #b0b0b0; stroke-width: 0.8; stroke-linecap: square"/>
     </g>
     <g id="line2d_12">
      <g>
       <use xlink:href="#m8e780f8b3e" x="271.851447" y="324" style="stroke: #000000; stroke-width: 0.8"/>
      </g>
     </g>
     <g id="text_6">
      <!-- 25000 -->
      <g transform="translate(255.945197 338.598437) scale(0.1 -0.1)">
       <use xlink:href="#DejaVuSans-32"/>
       <use xlink:href="#DejaVuSans-35" x="63.623047"/>
       <use xlink:href="#DejaVuSans-30" x="127.246094"/>
       <use xlink:href="#DejaVuSans-30" x="190.869141"/>
       <use xlink:href="#DejaVuSans-30" x="254.492188"/>
      </g>
     </g>
    </g>
    <g id="xtick_7">
     <g id="line2d_13">
      <path d="M 312.7381 324 
L 312.7381 25.2 
" clip-path="url(#p5f79500ee3)" style="fill: none; stroke: #b0b0b0; stroke-width: 0.8; stroke-linecap: square"/>
     </g>
     <g id="line2d_14">
      <g>
       <use xlink:href="#m8e780f8b3e" x="312.7381" y="324" style="stroke: #000000; stroke-width: 0.8"/>
      </g>
     </g>
     <g id="text_7">
      <!-- 30000 -->
      <g transform="translate(296.83185 338.598437) scale(0.1 -0.1)">
       <defs>
        <path id="DejaVuSans-33" d="M 2597 2516 
Q 3050 2419 3304 2112 
Q 3559 1806 3559 1356 
Q 3559 666 3084 287 
Q 2609 -91 1734 -91 
Q 1441 -91 1130 -33 
Q 819 25 488 141 
L 488 750 
Q 750 597 1062 519 
Q 1375 441 1716 441 
Q 2309 441 2620 675 
Q 2931 909 2931 1356 
Q 2931 1769 2642 2001 
Q 2353 2234 1838 2234 
L 1294 2234 
L 1294 2753 
L 1863 2753 
Q 2328 2753 2575 2939 
Q 2822 3125 2822 3475 
Q 2822 3834 2567 4026 
Q 2313 4219 1838 4219 
Q 1578 4219 1281 4162 
Q 984 4106 628 3988 
L 628 4550 
Q 988 4650 1302 4700 
Q 1616 4750 1894 4750 
Q 2613 4750 3031 4423 
Q 3450 4097 3450 3541 
Q 3450 3153 3228 2886 
Q 3006 2619 2597 2516 
z
" transform="scale(0.015625)"/>
       </defs>
       <use xlink:href="#DejaVuSans-33"/>
       <use xlink:href="#DejaVuSans-30" x="63.623047"/>
       <use xlink:href="#DejaVuSans-30" x="127.246094"/>
       <use xlink:href="#DejaVuSans-30" x="190.869141"/>
       <use xlink:href="#DejaVuSans-30" x="254.492188"/>
      </g>
     </g>
    </g>
    <g id="text_8">
     <!-- Points -->
     <g transform="translate(183.58125 354.79625) scale(0.12 -0.12)">
      <defs>
       <path id="DejaVuSans-50" d="M 1259 4147 
L 1259 2394 
L 2053 2394 
Q 2494 2394 2734 2622 
Q 2975 2850 2975 3272 
Q 2975 3691 2734 3919 
Q 2494 4147 2053 4147 
L 1259 4147 
z
M 628 4666 
L 2053 4666 
Q 2838 4666 3239 4311 
Q 3641 3956 3641 3272 
Q 3641 2581 3239 2228 
Q 2838 1875 2053 1875 
L 1259 1875 
L 1259 0 
L 628 0 
L 628 4666 
z
" transform="scale(0.015625)"/>
       <path id="DejaVuSans-6f" d="M 1959 3097 
Q 1497 3097 1228 2736 
Q 959 2375 959 1747 
Q 959 1119 1226 758 
Q 1494 397 1959 397 
Q 2419 397 2687 759 
Q 2956 1122 2956 1747 
Q 2956 2369 2687 2733 
Q 2419 3097 1959 3097 
z
M 1959 3584 
Q 2709 3584 3137 3096 
Q 3566 2609 3566 1747 
Q 3566 888 3137 398 
Q 2709 -91 1959 -91 
Q 1206 -91 779 398 
Q 353 888 353 1747 
Q 353 2609 779 3096 
Q 1206 3584 1959 3584 
z
" transform="scale(0.015625)"/>
       <path id="DejaVuSans-69" d="M 603 3500 
L 1178 3500 
L 1178 0 
L 603 0 
L 603 3500 
z
M 603 4863 
L 1178 4863 
L 1178 4134 
L 603 4134 
L 603 4863 
z
" transform="scale(0.015625)"/>
       <path id="DejaVuSans-6e" d="M 3513 2113 
L 3513 0 
L 2938 0 
L 2938 2094 
Q 2938 2591 2744 2837 
Q 2550 3084 2163 3084 
Q 1697 3084 1428 2787 
Q 1159 2491 1159 1978 
L 1159 0 
L 581 0 
L 581 3500 
L 1159 3500 
L 1159 2956 
Q 1366 3272 1645 3428 
Q 1925 3584 2291 3584 
Q 2894 3584 3203 3211 
Q 3513 2838 3513 2113 
z
" transform="scale(0.015625)"/>
       <path id="DejaVuSans-74" d="M 1172 4494 
L 1172 3500 
L 2356 3500 
L 2356 3053 
L 1172 3053 
L 1172 1153 
Q 1172 725 1289 603 
Q 1406 481 1766 481 
L 2356 481 
L 2356 0 
L 1766 0 
Q 1100 0 847 248 
Q 594 497 594 1153 
L 594 3053 
L 172 3053 
L 172 3500 
L 594 3500 
L 594 4494 
L 1172 4494 
z
" transform="scale(0.015625)"/>
       <path id="DejaVuSans-73" d="M 2834 3397 
L 2834 2853 
Q 2591 2978 2328 3040 
Q 2066 3103 1784 3103 
Q 1356 3103 1142 2972 
Q 928 2841 928 2578 
Q 928 2378 1081 2264 
Q 1234 2150 1697 2047 
L 1894 2003 
Q 2506 1872 2764 1633 
Q 3022 1394 3022 966 
Q 3022 478 2636 193 
Q 2250 -91 1575 -91 
Q 1294 -91 989 -36 
Q 684 19 347 128 
L 347 722 
Q 666 556 975 473 
Q 1284 391 1588 391 
Q 1994 391 2212 530 
Q 2431 669 2431 922 
Q 2431 1156 2273 1281 
Q 2116 1406 1581 1522 
L 1381 1569 
Q 847 1681 609 1914 
Q 372 2147 372 2553 
Q 372 3047 722 3315 
Q 1072 3584 1716 3584 
Q 2034 3584 2315 3537 
Q 2597 3491 2834 3397 
z
" transform="scale(0.015625)"/>
      </defs>
      <use xlink:href="#DejaVuSans-50"/>
      <use xlink:href="#DejaVuSans-6f" x="56.677734"/>
      <use xlink:href="#DejaVuSans-69" x="117.859375"/>
      <use xlink:href="#DejaVuSans-6e" x="145.642578"/>
      <use xlink:href="#DejaVuSans-74" x="209.021484"/>
      <use xlink:href="#DejaVuSans-73" x="248.230469"/>
     </g>
    </g>
   </g>
   <g id="matplotlib.axis_2">
    <g id="ytick_1">
     <g id="line2d_15">
      <path d="M 54 310.418182 
L 349.2 310.418182 
" clip-path="url(#p5f79500ee3)" style="fill: none; stroke: #b0b0b0; stroke-width: 0.8; stroke-linecap: square"/>
     </g>
     <g id="line2d_16">
      <defs>
       <path id="m290a7cc89d" d="M 0 0 
L -3.5 0 
" style="stroke: #000000; stroke-width: 0.8"/>
      </defs>
      <g>
       <use xlink:href="#m290a7cc89d" x="54" y="310.418182" style="stroke: #000000; stroke-width: 0.8"/>
      </g>
     </g>
     <g id="text_9">
      <!-- 0.0 -->
      <g transform="translate(31.096875 314.217401) scale(0.1 -0.1)">
       <defs>
        <path id="DejaVuSans-2e" d="M 684 794 
L 1344 794 
L 1344 0 
L 684 0 
L 684 794 
z
" transform="scale(0.015625)"/>
       </defs>
       <use xlink:href="#DejaVuSans-30"/>
       <use xlink:href="#DejaVuSans-2e" x="63.623047"/>
       <use xlink:href="#DejaVuSans-30" x="95.410156"/>
      </g>
     </g>
    </g>
    <g id="ytick_2">
     <g id="line2d_17">
      <path d="M 54 256.090909 
L 349.2 256.090909 
" clip-path="url(#p5f79500ee3)" style="fill: none; stroke: #b0b0b0; stroke-width: 0.8; stroke-linecap: square"/>
     </g>
     <g id="line2d_18">
      <g>
       <use xlink:href="#m290a7cc89d" x="54" y="256.090909" style="stroke: #000000; stroke-width: 0.8"/>
      </g>
     </g>
     <g id="text_10">
      <!-- 0.2 -->
      <g transform="translate(31.096875 259.890128) scale(0.1 -0.1)">
       <use xlink:href="#DejaVuSans-30"/>
       <use xlink:href="#DejaVuSans-2e" x="63.623047"/>
       <use xlink:href="#DejaVuSans-32" x="95.410156"/>
      </g>
     </g>
    </g>
    <g id="ytick_3">
     <g id="line2d_19">
      <path d="M 54 201.763636 
L 349.2 201.763636 
" clip-path="url(#p5f79500ee3)" style="fill: none; stroke: #b0b0b0; stroke-width: 0.8; stroke-linecap: square"/>
     </g>
     <g id="line2d_20">
      <g>
       <use xlink:href="#m290a7cc89d" x="54" y="201.763636" style="stroke: #000000; stroke-width: 0.8"/>
      </g>
     </g>
     <g id="text_11">
      <!-- 0.4 -->
      <g transform="translate(31.096875 205.562855) scale(0.1 -0.1)">
       <defs>
        <path id="DejaVuSans-34" d="M 2419 4116 
L 825 1625 
L 2419 1625 
L 2419 4116 
z
M 2253 4666 
L 3047 4666 
L 3047 1625 
L 3713 1625 
L 3713 1100 
L 3047 1100 
L 3047 0 
L 2419 0 
L 2419 1100 
L 313 1100 
L 313 1709 
L 2253 4666 
z
" transform="scale(0.015625)"/>
       </defs>
       <use xlink:href="#DejaVuSans-30"/>
       <use xlink:href="#DejaVuSans-2e" x="63.623047"/>
       <use xlink:href="#DejaVuSans-34" x="95.410156"/>
      </g>
     </g>
    </g>
    <g id="ytick_4">
     <g id="line2d_21">
      <path d="M 54 147.436364 
L 349.2 147.436364 
" clip-path="url(#p5f79500ee3)" style="fill: none; stroke: #b0b0b0; stroke-width: 0.8; stroke-linecap: square"/>
     </g>
     <g id="line2d_22">
      <g>
       <use xlink:href="#m290a7cc89d" x="54" y="147.436364" style="stroke: #000000; stroke-width: 0.8"/>
      </g>
     </g>
     <g id="text_12">
      <!-- 0.6 -->
      <g transform="translate(31.096875 151.235582) scale(0.1 -0.1)">
       <defs>
        <path id="DejaVuSans-36" d="M 2113 2584 
Q 1688 2584 1439 2293 
Q 1191 2003 1191 1497 
Q 1191 994 1439 701 
Q 1688 409 2113 409 
Q 2538 409 2786 701 
Q 3034 994 3034 1497 
Q 3034 2003 2786 2293 
Q 2538 2584 2113 2584 
z
M 3366 4563 
L 3366 3988 
Q 3128 4100 2886 4159 
Q 2644 4219 2406 4219 
Q 1781 4219 1451 3797 
Q 1122 3375 1075 2522 
Q 1259 2794 1537 2939 
Q 1816 3084 2150 3084 
Q 2853 3084 3261 2657 
Q 3669 2231 3669 1497 
Q 3669 778 3244 343 
Q 2819 -91 2113 -91 
Q 1303 -91 875 529 
Q 447 1150 447 2328 
Q 447 3434 972 4092 
Q 1497 4750 2381 4750 
Q 2619 4750 2861 4703 
Q 3103 4656 3366 4563 
z
" transform="scale(0.015625)"/>
       </defs>
       <use xlink:href="#DejaVuSans-30"/>
       <use xlink:href="#DejaVuSans-2e" x="63.623047"/>
       <use xlink:href="#DejaVuSans-36" x="95.410156"/>
      </g>
     </g>
    </g>
    <g id="ytick_5">
     <g id="line2d_23">
      <path d="M 54 93.109091 
L 349.2 93.109091 
" clip-path="url(#p5f79500ee3)" style="fill: none; stroke: #b0b0b0; stroke-width: 0.8; stroke-linecap: square"/>
     </g>
     <g id="line2d_24">
      <g>
       <use xlink:href="#m290a7cc89d" x="54" y="93.109091" style="stroke: #000000; stroke-width: 0.8"/>
      </g>
     </g>
     <g id="text_13">
      <!-- 0.8 -->
      <g transform="translate(31.096875 96.90831) scale(0.1 -0.1)">
       <defs>
        <path id="DejaVuSans-38" d="M 2034 2216 
Q 1584 2216 1326 1975 
Q 1069 1734 1069 1313 
Q 1069 891 1326 650 
Q 1584 409 2034 409 
Q 2484 409 2743 651 
Q 3003 894 3003 1313 
Q 3003 1734 2745 1975 
Q 2488 2216 2034 2216 
z
M 1403 2484 
Q 997 2584 770 2862 
Q 544 3141 544 3541 
Q 544 4100 942 4425 
Q 1341 4750 2034 4750 
Q 2731 4750 3128 4425 
Q 3525 4100 3525 3541 
Q 3525 3141 3298 2862 
Q 3072 2584 2669 2484 
Q 3125 2378 3379 2068 
Q 3634 1759 3634 1313 
Q 3634 634 3220 271 
Q 2806 -91 2034 -91 
Q 1263 -91 848 271 
Q 434 634 434 1313 
Q 434 1759 690 2068 
Q 947 2378 1403 2484 
z
M 1172 3481 
Q 1172 3119 1398 2916 
Q 1625 2713 2034 2713 
Q 2441 2713 2670 2916 
Q 2900 3119 2900 3481 
Q 2900 3844 2670 4047 
Q 2441 4250 2034 4250 
Q 1625 4250 1398 4047 
Q 1172 3844 1172 3481 
z
" transform="scale(0.015625)"/>
       </defs>
       <use xlink:href="#DejaVuSans-30"/>
       <use xlink:href="#DejaVuSans-2e" x="63.623047"/>
       <use xlink:href="#DejaVuSans-38" x="95.410156"/>
      </g>
     </g>
    </g>
    <g id="ytick_6">
     <g id="line2d_25">
      <path d="M 54 38.781818 
L 349.2 38.781818 
" clip-path="url(#p5f79500ee3)" style="fill: none; stroke: #b0b0b0; stroke-width: 0.8; stroke-linecap: square"/>
     </g>
     <g id="line2d_26">
      <g>
       <use xlink:href="#m290a7cc89d" x="54" y="38.781818" style="stroke: #000000; stroke-width: 0.8"/>
      </g>
     </g>
     <g id="text_14">
      <!-- 1.0 -->
      <g transform="translate(31.096875 42.581037) scale(0.1 -0.1)">
       <use xlink:href="#DejaVuSans-31"/>
       <use xlink:href="#DejaVuSans-2e" x="63.623047"/>
       <use xlink:href="#DejaVuSans-30" x="95.410156"/>
      </g>
     </g>
    </g>
    <g id="text_15">
     <!-- Distance -->
     <g transform="translate(23.60125 200.835) rotate(-90) scale(0.12 -0.12)">
      <defs>
       <path id="DejaVuSans-44" d="M 1259 4147 
L 1259 519 
L 2022 519 
Q 2988 519 3436 956 
Q 3884 1394 3884 2338 
Q 3884 3275 3436 3711 
Q 2988 4147 2022 4147 
L 1259 4147 
z
M 628 4666 
L 1925 4666 
Q 3281 4666 3915 4102 
Q 4550 3538 4550 2338 
Q 4550 1131 3912 565 
Q 3275 0 1925 0 
L 628 0 
L 628 4666 
z
" transform="scale(0.015625)"/>
       <path id="DejaVuSans-61" d="M 2194 1759 
Q 1497 1759 1228 1600 
Q 959 1441 959 1056 
Q 959 750 1161 570 
Q 1363 391 1709 391 
Q 2188 391 2477 730 
Q 2766 1069 2766 1631 
L 2766 1759 
L 2194 1759 
z
M 3341 1997 
L 3341 0 
L 2766 0 
L 2766 531 
Q 2569 213 2275 61 
Q 1981 -91 1556 -91 
Q 1019 -91 701 211 
Q 384 513 384 1019 
Q 384 1609 779 1909 
Q 1175 2209 1959 2209 
L 2766 2209 
L 2766 2266 
Q 2766 2663 2505 2880 
Q 2244 3097 1772 3097 
Q 1472 3097 1187 3025 
Q 903 2953 641 2809 
L 641 3341 
Q 956 3463 1253 3523 
Q 1550 3584 1831 3584 
Q 2591 3584 2966 3190 
Q 3341 2797 3341 1997 
z
" transform="scale(0.015625)"/>
       <path id="DejaVuSans-63" d="M 3122 3366 
L 3122 2828 
Q 2878 2963 2633 3030 
Q 2388 3097 2138 3097 
Q 1578 3097 1268 2742 
Q 959 2388 959 1747 
Q 959 1106 1268 751 
Q 1578 397 2138 397 
Q 2388 397 2633 464 
Q 2878 531 3122 666 
L 3122 134 
Q 2881 22 2623 -34 
Q 2366 -91 2075 -91 
Q 1284 -91 818 406 
Q 353 903 353 1747 
Q 353 2603 823 3093 
Q 1294 3584 2113 3584 
Q 2378 3584 2631 3529 
Q 2884 3475 3122 3366 
z
" transform="scale(0.015625)"/>
       <path id="DejaVuSans-65" d="M 3597 1894 
L 3597 1613 
L 953 1613 
Q 991 1019 1311 708 
Q 1631 397 2203 397 
Q 2534 397 2845 478 
Q 3156 559 3463 722 
L 3463 178 
Q 3153 47 2828 -22 
Q 2503 -91 2169 -91 
Q 1331 -91 842 396 
Q 353 884 353 1716 
Q 353 2575 817 3079 
Q 1281 3584 2069 3584 
Q 2775 3584 3186 3129 
Q 3597 2675 3597 1894 
z
M 3022 2063 
Q 3016 2534 2758 2815 
Q 2500 3097 2075 3097 
Q 1594 3097 1305 2825 
Q 1016 2553 972 2059 
L 3022 2063 
z
" transform="scale(0.015625)"/>
      </defs>
      <use xlink:href="#DejaVuSans-44"/>
      <use xlink:href="#DejaVuSans-69" x="77.001953"/>
      <use xlink:href="#DejaVuSans-73" x="104.785156"/>
      <use xlink:href="#DejaVuSans-74" x="156.884766"/>
      <use xlink:href="#DejaVuSans-61" x="196.09375"/>
      <use xlink:href="#DejaVuSans-6e" x="257.373047"/>
      <use xlink:href="#DejaVuSans-63" x="320.751953"/>
      <use xlink:href="#DejaVuSans-65" x="375.732422"/>
     </g>
    </g>
   </g>
   <g id="line2d_27">
    <path d="M 67.418182 310.418182 
L 177.386924 310.418182 
L 177.566825 308.383193 
L 177.575003 308.383193 
L 177.689485 307.934889 
L 178.425445 307.831391 
L 178.678942 306.400049 
L 178.68712 306.400049 
L 178.842489 305.666314 
L 178.867021 305.56901 
L 179.071454 303.626187 
L 179.087809 303.601995 
L 179.210469 302.891038 
L 180.12633 302.791296 
L 180.379827 301.870971 
L 180.911354 301.870971 
L 181.107609 300.19354 
L 181.843569 300.19354 
L 181.974407 299.461679 
L 182.088889 299.364452 
L 182.227904 299.155665 
L 182.931154 299.12485 
L 183.078346 298.66992 
L 183.192829 298.275402 
L 183.315489 298.021873 
L 183.438149 297.609097 
L 183.577163 297.16633 
L 183.773419 297.089553 
L 183.953321 296.588114 
L 184.133222 296.505624 
L 184.264059 296.323421 
L 184.329478 296.220057 
L 184.460315 295.811932 
L 184.493024 295.704809 
L 184.762876 295.455392 
L 184.918246 295.455392 
L 185.032728 295.337589 
L 185.490659 295.273528 
L 185.621496 295.058656 
L 185.654205 295.058656 
L 185.79322 294.484803 
L 185.932235 294.473393 
L 185.981299 294.473393 
L 186.103958 294.275516 
L 186.12849 294.067992 
L 186.300214 293.597559 
L 186.471938 293.490795 
L 186.749968 291.779574 
L 186.839918 291.779574 
L 187.003465 290.682237 
L 187.371445 290.585711 
L 187.494105 290.55357 
L 187.567701 290.4992 
L 187.894794 288.355693 
L 188.328192 288.276631 
L 188.516271 286.85258 
L 188.540803 286.817167 
L 188.737059 285.659513 
L 188.745236 285.659513 
L 188.900606 284.798414 
L 189.366713 284.798414 
L 189.562969 283.280859 
L 189.579324 283.205494 
L 189.710161 282.878728 
L 190.38888 282.794132 
L 190.519717 282.539705 
L 191.190258 282.486367 
L 191.321095 281.706654 
L 191.95075 281.604882 
L 192.032523 280.608938 
L 192.16336 279.853528 
L 192.171538 279.853528 
L 192.28602 279.678098 
L 192.915675 279.576412 
L 193.888777 274.875305 
L 194.510254 274.789767 
L 194.641092 274.322413 
L 195.982174 274.213972 
L 196.113011 274.071915 
L 196.186607 274.022952 
L 196.350154 273.296741 
L 196.480991 273.2194 
L 196.709956 272.215432 
L 197.388675 272.113774 
L 197.519512 271.832273 
L 197.723945 271.394206 
L 197.98562 270.528983 
L 198.247294 269.210384 
L 198.329068 269.10374 
L 199.065028 266.762901 
L 199.097737 266.668186 
L 199.318525 265.743547 
L 199.351234 265.656834 
L 199.563845 265.015485 
L 199.79281 264.741697 
L 200.3734 264.661299 
L 200.52877 264.179422 
L 200.536947 264.171328 
L 200.684139 263.321572 
L 201.485517 263.213543 
L 202.017044 261.75927 
L 202.09064 261.669708 
L 202.246009 261.451252 
L 202.254186 261.450396 
L 202.385024 261.061301 
L 202.613989 260.59505 
L 203.210934 260.533291 
L 203.349949 260.120287 
L 203.562559 259.95545 
L 204.012313 259.86336 
L 204.404824 258.891386 
L 205.00177 258.781252 
L 205.157139 258.474414 
L 205.345217 258.381089 
L 205.467877 258.35137 
L 206.064823 258.262079 
L 206.236546 257.754391 
L 206.416448 257.654058 
L 206.702654 257.654058 
L 206.841669 257.16975 
L 207.119698 256.450201 
L 208.100978 256.392219 
L 208.272702 255.810607 
L 208.485312 255.365199 
L 208.681568 254.412169 
L 208.730632 254.338259 
L 208.918711 253.730069 
L 209.270336 253.545941 
L 209.450237 253.468213 
L 209.589252 253.289348 
L 209.720089 253.200213 
L 209.875459 252.920482 
L 209.891813 252.910674 
L 210.022651 252.604984 
L 210.227084 251.876725 
L 210.570532 250.936931 
L 210.701369 250.803599 
L 210.88127 250.323283 
L 211.061172 249.860963 
L 211.118413 249.754019 
L 211.347378 249.749436 
L 211.731713 249.641533 
L 212.10787 249.060163 
L 212.173288 248.967593 
L 212.434963 248.609141 
L 212.549446 248.502508 
L 212.901071 247.684775 
L 213.334469 247.658716 
L 213.473484 247.317544 
L 213.849641 246.785555 
L 213.988656 246.412533 
L 214.054075 246.316388 
L 214.25033 246.044042 
L 214.332104 245.960506 
L 214.462941 245.672692 
L 214.659197 245.354313 
L 214.749148 245.272051 
L 214.929049 244.902606 
L 215.566881 244.79978 
L 216.065698 244.108153 
L 216.237422 243.847404 
L 216.384614 243.708493 
L 216.523628 243.447168 
L 217.128751 243.346261 
L 217.488553 242.769633 
L 218.069144 242.677568 
L 218.249045 242.14705 
L 218.338996 242.034781 
L 219.00136 241.188104 
L 219.074956 241.077043 
L 219.164906 240.935628 
L 219.295743 240.863197 
L 219.442935 240.753427 
L 219.58195 240.588265 
L 219.720965 240.485168 
L 219.974462 240.110084 
L 220.015349 239.95846 
L 220.154363 239.736781 
L 220.268846 239.626659 
L 220.587762 239.169273 
L 221.683524 238.797609 
L 221.847071 238.49757 
L 221.912489 238.391819 
L 222.296824 237.682837 
L 222.354065 237.610874 
L 222.509434 237.209626 
L 222.901946 236.533093 
L 223.065493 236.426438 
L 223.417118 236.141848 
L 223.531601 235.926785 
L 223.678793 235.732721 
L 223.736034 235.627887 
L 223.973177 235.26583 
L 224.144901 234.912946 
L 224.234851 234.800667 
L 224.439284 234.512078 
L 224.504703 234.409796 
L 224.676427 234.177259 
L 225.142535 234.076028 
L 225.297904 233.896563 
L 225.363323 233.802447 
L 225.543224 233.41782 
L 225.788544 233.244526 
L 226.328248 233.151786 
L 226.745292 232.386624 
L 226.84342 232.268528 
L 227.006966 232.117181 
L 227.096917 232.0107 
L 227.244109 231.910031 
L 227.644798 231.812288 
L 227.775635 231.602542 
L 227.922827 231.319638 
L 228.28263 230.944782 
L 228.609723 230.856261 
L 228.789624 230.445517 
L 229.067654 229.759243 
L 229.133072 229.697497 
L 229.263909 229.400593 
L 229.689131 228.681505 
L 230.253367 228.589624 
L 230.384204 228.349658 
L 230.629524 228.314051 
L 230.956617 228.24949 
L 231.128341 227.751232 
L 231.242824 227.643614 
L 231.545385 227.358113 
L 232.363118 225.999753 
L 232.739275 225.904368 
L 232.87829 225.718542 
L 233.0909 225.241263 
L 233.532476 224.717447 
L 233.728732 224.203063 
L 234.252081 223.512773 
L 234.505578 223.406381 
L 234.636416 223.344583 
L 235.037105 223.255157 
L 235.192474 223.009563 
L 235.315134 222.795349 
L 235.568631 222.400742 
L 235.691291 222.368847 
L 236.067449 222.289324 
L 236.198286 222.185469 
L 236.451783 221.788111 
L 236.598975 221.672934 
L 236.811586 221.562641 
L 237.343112 220.598987 
L 237.555723 220.377879 
L 237.727447 220.171131 
L 238.365278 219.005791 
L 238.496116 218.880084 
L 238.643308 218.8658 
L 239.011288 218.770605 
L 239.191189 218.409365 
L 239.420154 218.258943 
L 239.550991 218.210059 
L 240.344192 218.107397 
L 240.491384 217.926048 
L 240.859364 217.830455 
L 241.071975 217.557293 
L 243.181726 214.532851 
L 243.467933 214.430942 
L 243.647834 213.964059 
L 243.713253 213.85797 
L 244.79266 212.617711 
L 245.495911 212.544535 
L 245.643103 212.363045 
L 245.855713 212.183326 
L 245.888423 212.106336 
L 246.043792 211.777713 
L 246.117388 211.610838 
L 246.289112 211.363352 
L 246.370885 211.273076 
L 246.59985 210.934425 
L 246.673446 210.83585 
L 246.902412 210.596342 
L 247.21315 210.499637 
L 247.33581 210.463282 
L 247.671081 210.389074 
L 247.82645 210.15826 
L 248.079947 209.979859 
L 248.390686 209.876138 
L 248.586942 209.834212 
L 248.946744 209.737036 
L 249.461916 209.052639 
L 249.560044 208.946924 
L 249.887137 208.478991 
L 249.977088 208.381835 
L 250.148812 208.109199 
L 250.230585 207.990712 
L 250.623097 207.593448 
L 250.9829 207.484332 
L 251.359057 206.948148 
L 251.44083 206.847819 
L 251.702505 206.546326 
L 251.833342 206.436202 
L 252.781912 205.245508 
L 253.182602 205.144103 
L 253.37068 204.73475 
L 255.357772 202.994897 
L 255.54585 202.897773 
L 255.66851 202.805373 
L 255.995603 202.722374 
L 256.15915 202.50956 
L 256.298165 202.387182 
L 256.543484 202.097149 
L 256.723386 201.854348 
L 256.878755 201.676715 
L 257.132252 201.665065 
L 257.492055 201.554143 
L 257.614715 201.506018 
L 257.84368 201.403642 
L 258.236192 200.925155 
L 258.301611 200.832499 
L 258.628704 200.346993 
L 259.364664 199.860424 
L 259.536387 199.754373 
L 260.133333 198.943841 
L 260.272347 198.77139 
L 260.697568 198.164681 
L 260.885647 198.040879 
L 261.049194 197.770336 
L 261.433528 197.673439 
L 261.670671 197.459922 
L 262.046828 197.349229 
L 262.283971 197.022674 
L 262.390276 196.902104 
L 262.594709 196.574338 
L 262.668305 196.466009 
L 262.872738 196.19383 
L 263.011753 196.000271 
L 263.63323 195.368757 
L 264.025742 195.272486 
L 264.311949 194.974971 
L 264.434609 194.821536 
L 264.589978 194.528391 
L 264.753524 194.496119 
L 265.064263 194.388507 
L 265.235987 194.180034 
L 265.301406 194.101398 
L 265.432243 193.895291 
L 266.470764 192.972628 
L 266.675197 192.88071 
L 266.985936 192.415442 
L 267.116773 192.231215 
L 267.378448 191.794157 
L 267.787314 191.310432 
L 267.959038 191.09922 
L 268.10623 190.982961 
L 268.400614 190.663285 
L 268.515096 190.469311 
L 268.678643 190.286197 
L 268.801303 190.173524 
L 269.08751 189.933077 
L 269.406426 189.837965 
L 269.684455 189.441332 
L 269.79076 189.349129 
L 269.929775 189.211743 
L 270.265045 189.109047 
L 270.49401 188.671493 
L 270.829281 188.522482 
L 271.172729 188.062066 
L 271.368985 187.907221 
L 271.990462 187.152599 
L 272.301201 187.046261 
L 272.775486 186.486809 
L 272.906323 186.296692 
L 273.045338 186.101654 
L 273.233416 185.911123 
L 273.290658 185.80756 
L 273.43785 185.682868 
L 274.312824 184.577543 
L 274.402775 184.46964 
L 274.917946 183.950255 
L 275.065138 183.709835 
L 275.408586 183.614811 
L 275.572133 183.511252 
L 275.841985 183.220171 
L 275.940113 183.083093 
L 276.291738 182.73061 
L 276.430753 182.548165 
L 276.692427 182.122119 
L 276.815087 181.997973 
L 278.605922 179.754521 
L 278.933016 179.398377 
L 279.726217 178.534392 
L 279.857054 178.269113 
L 280.91193 177.111519 
L 281.075476 177.013428 
L 281.255378 176.705347 
L 281.566116 176.494957 
L 281.770549 176.388969 
L 283.136164 174.902019 
L 283.397838 174.579749 
L 284.395473 173.277725 
L 284.559019 173.097138 
L 286.071825 171.067382 
L 286.308968 170.815088 
L 286.513401 170.602665 
L 288.467783 168.668956 
L 288.606798 168.59604 
L 288.664039 168.504519 
L 288.819408 168.25723 
L 289.440886 167.836024 
L 289.547191 167.730616 
L 290.871918 166.021958 
L 291.100884 165.704187 
L 291.411622 165.317933 
L 291.493396 165.184794 
L 291.730538 164.851143 
L 292.163937 164.336751 
L 292.327483 164.058516 
L 292.450143 163.897991 
L 292.621867 163.642566 
L 293.096152 162.964697 
L 293.218812 162.792126 
L 293.513196 162.340135 
L 293.897531 161.800201 
L 294.110141 161.496603 
L 294.200092 161.37902 
L 294.347284 161.20215 
L 294.527185 160.995265 
L 294.658022 160.851938 
L 294.837924 160.59493 
L 295.009648 160.366699 
L 295.140485 160.18372 
L 295.483933 159.693585 
L 295.582061 159.565372 
L 296.252602 158.57819 
L 296.555163 158.471051 
L 296.923143 158.036377 
L 297.135754 157.788284 
L 297.17664 157.677019 
L 297.871713 156.630691 
L 298.03526 156.449008 
L 298.313289 156.354982 
L 298.583141 155.862058 
L 298.681269 155.714372 
L 298.934766 155.41597 
L 299.073781 155.072803 
L 299.180086 154.899268 
L 299.59713 154.200738 
L 299.654371 154.092365 
L 299.785209 153.89187 
L 300.194075 153.227309 
L 300.357622 153.062235 
L 300.562055 152.833098 
L 300.635651 152.677979 
L 300.782843 152.456913 
L 300.930035 152.138868 
L 301.167178 151.740905 
L 301.273483 151.627523 
L 301.428852 151.375544 
L 301.567867 151.15789 
L 301.968556 150.326615 
L 302.099393 150.224285 
L 302.287472 150.134954 
L 302.410132 150.06201 
L 302.590033 149.71619 
L 302.900772 149.515752 
L 303.154269 149.41888 
L 304.086485 147.759914 
L 304.135549 147.654346 
L 304.478997 147.044827 
L 304.920572 146.597855 
L 304.994168 146.531125 
L 305.133183 146.249692 
L 305.255843 146.053771 
L 306.286187 144.166985 
L 306.556039 143.649125 
L 306.629635 143.488016 
L 307.10392 142.455943 
L 307.242934 142.047845 
L 307.283821 141.944458 
L 307.733574 140.984668 
L 308.117909 140.141714 
L 308.191505 140.0343 
L 308.445002 139.410519 
L 308.575839 139.220537 
L 308.723031 138.906818 
L 308.78845 138.759319 
L 309.131898 137.950078 
L 309.197316 137.825527 
L 309.704311 136.586626 
L 310.015049 136.401832 
L 311.225294 133.652572 
L 311.740466 132.173704 
L 311.781353 132.051731 
L 312.026673 131.262154 
L 312.231106 131.152582 
L 312.411007 130.554177 
L 312.639973 130.237736 
L 312.713568 130.167063 
L 312.901647 129.734935 
L 313.057016 129.628712 
L 313.073371 129.610891 
L 313.236918 128.642872 
L 313.26145 128.593851 
L 313.416819 128.229365 
L 313.604898 128.12026 
L 313.653962 127.923429 
L 314.201843 126.241332 
L 314.373567 125.776258 
L 314.594355 125.037676 
L 314.782433 124.243034 
L 314.962334 123.572892 
L 315.027753 123.398539 
L 315.248541 122.435446 
L 315.28125 122.367873 
L 315.412088 122.176455 
L 315.52657 122.095134 
L 316.434254 116.972199 
L 316.614155 115.881269 
L 317.45642 114.235354 
L 317.48913 114.176773 
L 317.628144 113.326212 
L 317.865287 112.726051 
L 317.938883 112.641217 
L 318.355927 109.830677 
L 318.56036 109.741267 
L 318.89563 107.454162 
L 318.944694 107.188984 
L 319.574349 100.401408 
L 319.590704 100.215281 
L 319.762427 98.477011 
L 319.770605 98.477011 
L 319.99957 96.070676 
L 320.040457 95.965213 
L 320.24489 95.05192 
L 320.392082 94.153321 
L 320.432969 93.905223 
L 320.580161 92.868133 
L 320.710998 92.826783 
L 320.907254 91.320247 
L 320.956318 90.638652 
L 321.078978 89.429286 
L 321.152574 89.429286 
L 321.381539 87.507914 
L 321.446958 87.108223 
L 321.626859 84.915611 
L 321.659568 84.667982 
L 322.305577 77.809861 
L 322.403705 77.809861 
L 322.992473 58.252408 
L 323.180552 46.564721 
L 323.205084 46.066602 
L 323.335921 38.781818 
L 335.781818 38.781818 
L 335.781818 38.781818 
" clip-path="url(#p5f79500ee3)" style="fill: none; stroke: #1f77b4; stroke-width: 1.5; stroke-linecap: square"/>
   </g>
   <g id="patch_3">
    <path d="M 54 324 
L 54 25.2 
" style="fill: none; stroke: #000000; stroke-width: 0.8; stroke-linejoin: miter; stroke-linecap: square"/>
   </g>
   <g id="patch_4">
    <path d="M 349.2 324 
L 349.2 25.2 
" style="fill: none; stroke: #000000; stroke-width: 0.8; stroke-linejoin: miter; stroke-linecap: square"/>
   </g>
   <g id="patch_5">
    <path d="M 54 324 
L 349.2 324 
" style="fill: none; stroke: #000000; stroke-width: 0.8; stroke-linejoin: miter; stroke-linecap: square"/>
   </g>
   <g id="patch_6">
    <path d="M 54 25.2 
L 349.2 25.2 
" style="fill: none; stroke: #000000; stroke-width: 0.8; stroke-linejoin: miter; stroke-linecap: square"/>
   </g>
   <g id="text_16">
    <!-- Categories TF-IDF distance K=100 -->
    <g transform="translate(98.577187 15.2) scale(0.12 -0.12)">
     <defs>
      <path id="DejaVuSans-43" d="M 4122 4306 
L 4122 3641 
Q 3803 3938 3442 4084 
Q 3081 4231 2675 4231 
Q 1875 4231 1450 3742 
Q 1025 3253 1025 2328 
Q 1025 1406 1450 917 
Q 1875 428 2675 428 
Q 3081 428 3442 575 
Q 3803 722 4122 1019 
L 4122 359 
Q 3791 134 3420 21 
Q 3050 -91 2638 -91 
Q 1578 -91 968 557 
Q 359 1206 359 2328 
Q 359 3453 968 4101 
Q 1578 4750 2638 4750 
Q 3056 4750 3426 4639 
Q 3797 4528 4122 4306 
z
" transform="scale(0.015625)"/>
      <path id="DejaVuSans-67" d="M 2906 1791 
Q 2906 2416 2648 2759 
Q 2391 3103 1925 3103 
Q 1463 3103 1205 2759 
Q 947 2416 947 1791 
Q 947 1169 1205 825 
Q 1463 481 1925 481 
Q 2391 481 2648 825 
Q 2906 1169 2906 1791 
z
M 3481 434 
Q 3481 -459 3084 -895 
Q 2688 -1331 1869 -1331 
Q 1566 -1331 1297 -1286 
Q 1028 -1241 775 -1147 
L 775 -588 
Q 1028 -725 1275 -790 
Q 1522 -856 1778 -856 
Q 2344 -856 2625 -561 
Q 2906 -266 2906 331 
L 2906 616 
Q 2728 306 2450 153 
Q 2172 0 1784 0 
Q 1141 0 747 490 
Q 353 981 353 1791 
Q 353 2603 747 3093 
Q 1141 3584 1784 3584 
Q 2172 3584 2450 3431 
Q 2728 3278 2906 2969 
L 2906 3500 
L 3481 3500 
L 3481 434 
z
" transform="scale(0.015625)"/>
      <path id="DejaVuSans-72" d="M 2631 2963 
Q 2534 3019 2420 3045 
Q 2306 3072 2169 3072 
Q 1681 3072 1420 2755 
Q 1159 2438 1159 1844 
L 1159 0 
L 581 0 
L 581 3500 
L 1159 3500 
L 1159 2956 
Q 1341 3275 1631 3429 
Q 1922 3584 2338 3584 
Q 2397 3584 2469 3576 
Q 2541 3569 2628 3553 
L 2631 2963 
z
" transform="scale(0.015625)"/>
      <path id="DejaVuSans-20" transform="scale(0.015625)"/>
      <path id="DejaVuSans-54" d="M -19 4666 
L 3928 4666 
L 3928 4134 
L 2272 4134 
L 2272 0 
L 1638 0 
L 1638 4134 
L -19 4134 
L -19 4666 
z
" transform="scale(0.015625)"/>
      <path id="DejaVuSans-46" d="M 628 4666 
L 3309 4666 
L 3309 4134 
L 1259 4134 
L 1259 2759 
L 3109 2759 
L 3109 2228 
L 1259 2228 
L 1259 0 
L 628 0 
L 628 4666 
z
" transform="scale(0.015625)"/>
      <path id="DejaVuSans-2d" d="M 313 2009 
L 1997 2009 
L 1997 1497 
L 313 1497 
L 313 2009 
z
" transform="scale(0.015625)"/>
      <path id="DejaVuSans-49" d="M 628 4666 
L 1259 4666 
L 1259 0 
L 628 0 
L 628 4666 
z
" transform="scale(0.015625)"/>
      <path id="DejaVuSans-64" d="M 2906 2969 
L 2906 4863 
L 3481 4863 
L 3481 0 
L 2906 0 
L 2906 525 
Q 2725 213 2448 61 
Q 2172 -91 1784 -91 
Q 1150 -91 751 415 
Q 353 922 353 1747 
Q 353 2572 751 3078 
Q 1150 3584 1784 3584 
Q 2172 3584 2448 3432 
Q 2725 3281 2906 2969 
z
M 947 1747 
Q 947 1113 1208 752 
Q 1469 391 1925 391 
Q 2381 391 2643 752 
Q 2906 1113 2906 1747 
Q 2906 2381 2643 2742 
Q 2381 3103 1925 3103 
Q 1469 3103 1208 2742 
Q 947 2381 947 1747 
z
" transform="scale(0.015625)"/>
      <path id="DejaVuSans-4b" d="M 628 4666 
L 1259 4666 
L 1259 2694 
L 3353 4666 
L 4166 4666 
L 1850 2491 
L 4331 0 
L 3500 0 
L 1259 2247 
L 1259 0 
L 628 0 
L 628 4666 
z
" transform="scale(0.015625)"/>
      <path id="DejaVuSans-3d" d="M 678 2906 
L 4684 2906 
L 4684 2381 
L 678 2381 
L 678 2906 
z
M 678 1631 
L 4684 1631 
L 4684 1100 
L 678 1100 
L 678 1631 
z
" transform="scale(0.015625)"/>
     </defs>
     <use xlink:href="#DejaVuSans-43"/>
     <use xlink:href="#DejaVuSans-61" x="69.824219"/>
     <use xlink:href="#DejaVuSans-74" x="131.103516"/>
     <use xlink:href="#DejaVuSans-65" x="170.3125"/>
     <use xlink:href="#DejaVuSans-67" x="231.835938"/>
     <use xlink:href="#DejaVuSans-6f" x="295.3125"/>
     <use xlink:href="#DejaVuSans-72" x="356.494141"/>
     <use xlink:href="#DejaVuSans-69" x="397.607422"/>
     <use xlink:href="#DejaVuSans-65" x="425.390625"/>
     <use xlink:href="#DejaVuSans-73" x="486.914062"/>
     <use xlink:href="#DejaVuSans-20" x="539.013672"/>
     <use xlink:href="#DejaVuSans-54" x="570.800781"/>
     <use xlink:href="#DejaVuSans-46" x="631.884766"/>
     <use xlink:href="#DejaVuSans-2d" x="689.404297"/>
     <use xlink:href="#DejaVuSans-49" x="725.488281"/>
     <use xlink:href="#DejaVuSans-44" x="754.980469"/>
     <use xlink:href="#DejaVuSans-46" x="831.982422"/>
     <use xlink:href="#DejaVuSans-20" x="889.501953"/>
     <use xlink:href="#DejaVuSans-64" x="921.289062"/>
     <use xlink:href="#DejaVuSans-69" x="984.765625"/>
     <use xlink:href="#DejaVuSans-73" x="1012.548828"/>
     <use xlink:href="#DejaVuSans-74" x="1064.648438"/>
     <use xlink:href="#DejaVuSans-61" x="1103.857422"/>
     <use xlink:href="#DejaVuSans-6e" x="1165.136719"/>
     <use xlink:href="#DejaVuSans-63" x="1228.515625"/>
     <use xlink:href="#DejaVuSans-65" x="1283.496094"/>
     <use xlink:href="#DejaVuSans-20" x="1345.019531"/>
     <use xlink:href="#DejaVuSans-4b" x="1376.806641"/>
     <use xlink:href="#DejaVuSans-3d" x="1442.382812"/>
     <use xlink:href="#DejaVuSans-31" x="1526.171875"/>
     <use xlink:href="#DejaVuSans-30" x="1589.794922"/>
     <use xlink:href="#DejaVuSans-30" x="1653.417969"/>
    </g>
   </g>
  </g>
 </g>
 <defs>
  <clipPath id="p5f79500ee3">
   <rect x="54" y="25.2" width="295.2" height="298.8"/>
  </clipPath>
 </defs>
</svg>
